solid Flap
   facet normal -9.975975e-001 0.000000e+000 -6.927761e-002
      outer loop
         vertex -7.823167e-001 -1.250000e+001 -9.894639e+000
         vertex -1.962872e+000 -1.250000e+001 7.105361e+000
         vertex -7.823167e-001 1.250000e+001 -9.894639e+000
      endloop
   endfacet
   facet normal -9.975975e-001 0.000000e+000 -6.927761e-002
      outer loop
         vertex -7.823167e-001 1.250000e+001 -9.894639e+000
         vertex -1.962872e+000 -1.250000e+001 7.105361e+000
         vertex -1.962872e+000 1.250000e+001 7.105361e+000
      endloop
   endfacet
   facet normal 0.000000e+000 0.000000e+000 -1.000000e+000
      outer loop
         vertex 2.835180e-001 -1.250000e+001 -1.036000e+001
         vertex -2.835180e-001 -1.250000e+001 -1.036000e+001
         vertex 2.835180e-001 1.250000e+001 -1.036000e+001
      endloop
   endfacet
   facet normal 0.000000e+000 0.000000e+000 -1.000000e+000
      outer loop
         vertex 2.835180e-001 1.250000e+001 -1.036000e+001
         vertex -2.835180e-001 -1.250000e+001 -1.036000e+001
         vertex -2.835180e-001 1.250000e+001 -1.036000e+001
      endloop
   endfacet
   facet normal 9.975975e-001 0.000000e+000 -6.927761e-002
      outer loop
         vertex 7.823167e-001 1.250000e+001 -9.894639e+000
         vertex 1.962872e+000 1.250000e+001 7.105361e+000
         vertex 7.823167e-001 -1.250000e+001 -9.894639e+000
      endloop
   endfacet
   facet normal 9.975975e-001 0.000000e+000 -6.927761e-002
      outer loop
         vertex 7.823167e-001 -1.250000e+001 -9.894639e+000
         vertex 1.962872e+000 1.250000e+001 7.105361e+000
         vertex 1.962872e+000 -1.250000e+001 7.105361e+000
      endloop
   endfacet
   facet normal 0.000000e+000 0.000000e+000 1.000000e+000
      outer loop
         vertex 1.464074e+000 1.250000e+001 7.640000e+000
         vertex -1.464074e+000 1.250000e+001 7.640000e+000
         vertex 1.464074e+000 -1.250000e+001 7.640000e+000
      endloop
   endfacet
   facet normal 0.000000e+000 0.000000e+000 1.000000e+000
      outer loop
         vertex 1.464074e+000 -1.250000e+001 7.640000e+000
         vertex -1.464074e+000 1.250000e+001 7.640000e+000
         vertex -1.464074e+000 -1.250000e+001 7.640000e+000
      endloop
   endfacet
   facet normal 0.000000e+000 -1.000000e+000 0.000000e+000
      outer loop
         vertex -7.823167e-001 -1.250000e+001 -9.894639e+000
         vertex -7.696396e-001 -1.250000e+001 -9.976987e+000
         vertex -7.434640e-001 -1.250000e+001 -1.005609e+001
      endloop
   endfacet
   facet normal 0.000000e+000 -1.000000e+000 0.000000e+000
      outer loop
         vertex 7.823167e-001 -1.250000e+001 -9.894639e+000
         vertex 1.962872e+000 -1.250000e+001 7.105361e+000
         vertex 1.464074e+000 -1.250000e+001 7.640000e+000
      endloop
   endfacet
   facet normal 0.000000e+000 -1.000000e+000 0.000000e+000
      outer loop
         vertex 1.961834e+000 -1.250000e+001 7.187269e+000
         vertex 1.625161e+000 -1.250000e+001 7.613340e+000
         vertex 1.962872e+000 -1.250000e+001 7.105361e+000
      endloop
   endfacet
   facet normal 0.000000e+000 -1.000000e+000 0.000000e+000
      outer loop
         vertex 1.962872e+000 -1.250000e+001 7.105361e+000
         vertex 1.625161e+000 -1.250000e+001 7.613340e+000
         vertex 1.545713e+000 -1.250000e+001 7.633290e+000
      endloop
   endfacet
   facet normal 0.000000e+000 -1.000000e+000 0.000000e+000
      outer loop
         vertex 1.962872e+000 -1.250000e+001 7.105361e+000
         vertex 1.545713e+000 -1.250000e+001 7.633290e+000
         vertex 1.464074e+000 -1.250000e+001 7.640000e+000
      endloop
   endfacet
   facet normal 0.000000e+000 -1.000000e+000 0.000000e+000
      outer loop
         vertex -6.538796e-001 -1.250000e+001 -1.019590e+001
         vertex -5.929584e-001 -1.250000e+001 -1.025274e+001
         vertex -1.464074e+000 -1.250000e+001 7.640000e+000
      endloop
   endfacet
   facet normal 0.000000e+000 -1.000000e+000 0.000000e+000
      outer loop
         vertex -3.665463e-001 -1.250000e+001 -1.035306e+001
         vertex -2.835180e-001 -1.250000e+001 -1.036000e+001
         vertex -1.464074e+000 -1.250000e+001 7.640000e+000
      endloop
   endfacet
   facet normal 0.000000e+000 -1.000000e+000 0.000000e+000
      outer loop
         vertex -1.464074e+000 -1.250000e+001 7.640000e+000
         vertex -2.835180e-001 -1.250000e+001 -1.036000e+001
         vertex 2.835180e-001 -1.250000e+001 -1.036000e+001
      endloop
   endfacet
   facet normal 0.000000e+000 -1.000000e+000 0.000000e+000
      outer loop
         vertex -1.464074e+000 -1.250000e+001 7.640000e+000
         vertex 2.835180e-001 -1.250000e+001 -1.036000e+001
         vertex 3.665463e-001 -1.250000e+001 -1.035306e+001
      endloop
   endfacet
   facet normal 0.000000e+000 -1.000000e+000 0.000000e+000
      outer loop
         vertex 1.961834e+000 -1.250000e+001 7.187269e+000
         vertex 1.947436e+000 -1.250000e+001 7.267909e+000
         vertex 1.625161e+000 -1.250000e+001 7.613340e+000
      endloop
   endfacet
   facet normal 0.000000e+000 -1.000000e+000 0.000000e+000
      outer loop
         vertex 1.625161e+000 -1.250000e+001 7.613340e+000
         vertex 1.947436e+000 -1.250000e+001 7.267909e+000
         vertex 1.920065e+000 -1.250000e+001 7.345115e+000
      endloop
   endfacet
   facet normal 0.000000e+000 -1.000000e+000 0.000000e+000
      outer loop
         vertex 1.625161e+000 -1.250000e+001 7.613340e+000
         vertex 1.920065e+000 -1.250000e+001 7.345115e+000
         vertex 1.880455e+000 -1.250000e+001 7.416816e+000
      endloop
   endfacet
   facet normal 0.000000e+000 -1.000000e+000 0.000000e+000
      outer loop
         vertex 3.665463e-001 -1.250000e+001 -1.035306e+001
         vertex 4.472690e-001 -1.250000e+001 -1.033243e+001
         vertex -1.464074e+000 -1.250000e+001 7.640000e+000
      endloop
   endfacet
   facet normal 0.000000e+000 -1.000000e+000 0.000000e+000
      outer loop
         vertex -1.464074e+000 -1.250000e+001 7.640000e+000
         vertex 4.472690e-001 -1.250000e+001 -1.033243e+001
         vertex 5.234448e-001 -1.250000e+001 -1.029867e+001
      endloop
   endfacet
   facet normal 0.000000e+000 -1.000000e+000 0.000000e+000
      outer loop
         vertex -1.464074e+000 -1.250000e+001 7.640000e+000
         vertex 5.234448e-001 -1.250000e+001 -1.029867e+001
         vertex 5.929584e-001 -1.250000e+001 -1.025274e+001
      endloop
   endfacet
   facet normal 0.000000e+000 -1.000000e+000 0.000000e+000
      outer loop
         vertex -7.823167e-001 -1.250000e+001 -9.894639e+000
         vertex -1.464074e+000 -1.250000e+001 7.640000e+000
         vertex -1.962872e+000 -1.250000e+001 7.105361e+000
      endloop
   endfacet
   facet normal 0.000000e+000 -1.000000e+000 0.000000e+000
      outer loop
         vertex -1.962872e+000 -1.250000e+001 7.105361e+000
         vertex -1.464074e+000 -1.250000e+001 7.640000e+000
         vertex -1.545713e+000 -1.250000e+001 7.633290e+000
      endloop
   endfacet
   facet normal 0.000000e+000 -1.000000e+000 0.000000e+000
      outer loop
         vertex -1.962872e+000 -1.250000e+001 7.105361e+000
         vertex -1.545713e+000 -1.250000e+001 7.633290e+000
         vertex -1.625161e+000 -1.250000e+001 7.613340e+000
      endloop
   endfacet
   facet normal 0.000000e+000 -1.000000e+000 0.000000e+000
      outer loop
         vertex 1.880455e+000 -1.250000e+001 7.416816e+000
         vertex 1.829669e+000 -1.250000e+001 7.481087e+000
         vertex 1.625161e+000 -1.250000e+001 7.613340e+000
      endloop
   endfacet
   facet normal 0.000000e+000 -1.000000e+000 0.000000e+000
      outer loop
         vertex 1.625161e+000 -1.250000e+001 7.613340e+000
         vertex 1.829669e+000 -1.250000e+001 7.481087e+000
         vertex 1.769070e+000 -1.250000e+001 7.536203e+000
      endloop
   endfacet
   facet normal 0.000000e+000 -1.000000e+000 0.000000e+000
      outer loop
         vertex 1.625161e+000 -1.250000e+001 7.613340e+000
         vertex 1.769070e+000 -1.250000e+001 7.536203e+000
         vertex 1.700286e+000 -1.250000e+001 7.580686e+000
      endloop
   endfacet
   facet normal 0.000000e+000 -1.000000e+000 0.000000e+000
      outer loop
         vertex -7.823167e-001 -1.250000e+001 -9.894639e+000
         vertex -7.434640e-001 -1.250000e+001 -1.005609e+001
         vertex -1.464074e+000 -1.250000e+001 7.640000e+000
      endloop
   endfacet
   facet normal 0.000000e+000 -1.000000e+000 0.000000e+000
      outer loop
         vertex -1.464074e+000 -1.250000e+001 7.640000e+000
         vertex -7.434640e-001 -1.250000e+001 -1.005609e+001
         vertex -7.045168e-001 -1.250000e+001 -1.012974e+001
      endloop
   endfacet
   facet normal 0.000000e+000 -1.000000e+000 0.000000e+000
      outer loop
         vertex -1.464074e+000 -1.250000e+001 7.640000e+000
         vertex -7.045168e-001 -1.250000e+001 -1.012974e+001
         vertex -6.538796e-001 -1.250000e+001 -1.019590e+001
      endloop
   endfacet
   facet normal 0.000000e+000 -1.000000e+000 0.000000e+000
      outer loop
         vertex 7.696396e-001 -1.250000e+001 -9.976987e+000
         vertex 7.823167e-001 -1.250000e+001 -9.894639e+000
         vertex 7.434640e-001 -1.250000e+001 -1.005609e+001
      endloop
   endfacet
   facet normal 0.000000e+000 -1.000000e+000 0.000000e+000
      outer loop
         vertex 7.434640e-001 -1.250000e+001 -1.005609e+001
         vertex 7.823167e-001 -1.250000e+001 -9.894639e+000
         vertex 1.464074e+000 -1.250000e+001 7.640000e+000
      endloop
   endfacet
   facet normal 0.000000e+000 -1.000000e+000 0.000000e+000
      outer loop
         vertex 7.434640e-001 -1.250000e+001 -1.005609e+001
         vertex 1.464074e+000 -1.250000e+001 7.640000e+000
         vertex 7.045168e-001 -1.250000e+001 -1.012974e+001
      endloop
   endfacet
   facet normal 0.000000e+000 -1.000000e+000 0.000000e+000
      outer loop
         vertex 7.045168e-001 -1.250000e+001 -1.012974e+001
         vertex 1.464074e+000 -1.250000e+001 7.640000e+000
         vertex -1.464074e+000 -1.250000e+001 7.640000e+000
      endloop
   endfacet
   facet normal 0.000000e+000 -1.000000e+000 0.000000e+000
      outer loop
         vertex 7.045168e-001 -1.250000e+001 -1.012974e+001
         vertex -1.464074e+000 -1.250000e+001 7.640000e+000
         vertex 6.538796e-001 -1.250000e+001 -1.019590e+001
      endloop
   endfacet
   facet normal 0.000000e+000 -1.000000e+000 0.000000e+000
      outer loop
         vertex 6.538796e-001 -1.250000e+001 -1.019590e+001
         vertex -1.464074e+000 -1.250000e+001 7.640000e+000
         vertex 5.929584e-001 -1.250000e+001 -1.025274e+001
      endloop
   endfacet
   facet normal 0.000000e+000 -1.000000e+000 0.000000e+000
      outer loop
         vertex -1.625161e+000 -1.250000e+001 7.613340e+000
         vertex -1.700286e+000 -1.250000e+001 7.580686e+000
         vertex -1.962872e+000 -1.250000e+001 7.105361e+000
      endloop
   endfacet
   facet normal 0.000000e+000 -1.000000e+000 0.000000e+000
      outer loop
         vertex -1.962872e+000 -1.250000e+001 7.105361e+000
         vertex -1.700286e+000 -1.250000e+001 7.580686e+000
         vertex -1.769070e+000 -1.250000e+001 7.536203e+000
      endloop
   endfacet
   facet normal 0.000000e+000 -1.000000e+000 0.000000e+000
      outer loop
         vertex -1.962872e+000 -1.250000e+001 7.105361e+000
         vertex -1.769070e+000 -1.250000e+001 7.536203e+000
         vertex -1.829669e+000 -1.250000e+001 7.481087e+000
      endloop
   endfacet
   facet normal 0.000000e+000 -1.000000e+000 0.000000e+000
      outer loop
         vertex -1.829669e+000 -1.250000e+001 7.481087e+000
         vertex -1.880455e+000 -1.250000e+001 7.416816e+000
         vertex -1.962872e+000 -1.250000e+001 7.105361e+000
      endloop
   endfacet
   facet normal 0.000000e+000 -1.000000e+000 0.000000e+000
      outer loop
         vertex -1.962872e+000 -1.250000e+001 7.105361e+000
         vertex -1.880455e+000 -1.250000e+001 7.416816e+000
         vertex -1.920065e+000 -1.250000e+001 7.345115e+000
      endloop
   endfacet
   facet normal 0.000000e+000 -1.000000e+000 0.000000e+000
      outer loop
         vertex -1.962872e+000 -1.250000e+001 7.105361e+000
         vertex -1.920065e+000 -1.250000e+001 7.345115e+000
         vertex -1.961834e+000 -1.250000e+001 7.187269e+000
      endloop
   endfacet
   facet normal 0.000000e+000 -1.000000e+000 0.000000e+000
      outer loop
         vertex -1.961834e+000 -1.250000e+001 7.187269e+000
         vertex -1.920065e+000 -1.250000e+001 7.345115e+000
         vertex -1.947436e+000 -1.250000e+001 7.267909e+000
      endloop
   endfacet
   facet normal 0.000000e+000 -1.000000e+000 0.000000e+000
      outer loop
         vertex -5.929584e-001 -1.250000e+001 -1.025274e+001
         vertex -5.234448e-001 -1.250000e+001 -1.029867e+001
         vertex -1.464074e+000 -1.250000e+001 7.640000e+000
      endloop
   endfacet
   facet normal 0.000000e+000 -1.000000e+000 0.000000e+000
      outer loop
         vertex -1.464074e+000 -1.250000e+001 7.640000e+000
         vertex -5.234448e-001 -1.250000e+001 -1.029867e+001
         vertex -4.472690e-001 -1.250000e+001 -1.033243e+001
      endloop
   endfacet
   facet normal 0.000000e+000 -1.000000e+000 0.000000e+000
      outer loop
         vertex -1.464074e+000 -1.250000e+001 7.640000e+000
         vertex -4.472690e-001 -1.250000e+001 -1.033243e+001
         vertex -3.665463e-001 -1.250000e+001 -1.035306e+001
      endloop
   endfacet
   facet normal 0.000000e+000 1.000000e+000 0.000000e+000
      outer loop
         vertex 7.823167e-001 1.250000e+001 -9.894639e+000
         vertex 7.696396e-001 1.250000e+001 -9.976987e+000
         vertex 7.434640e-001 1.250000e+001 -1.005609e+001
      endloop
   endfacet
   facet normal 0.000000e+000 1.000000e+000 0.000000e+000
      outer loop
         vertex -1.625161e+000 1.250000e+001 7.613340e+000
         vertex -1.545713e+000 1.250000e+001 7.633290e+000
         vertex -1.962872e+000 1.250000e+001 7.105361e+000
      endloop
   endfacet
   facet normal 0.000000e+000 1.000000e+000 0.000000e+000
      outer loop
         vertex -1.962872e+000 1.250000e+001 7.105361e+000
         vertex -1.545713e+000 1.250000e+001 7.633290e+000
         vertex -1.464074e+000 1.250000e+001 7.640000e+000
      endloop
   endfacet
   facet normal 0.000000e+000 1.000000e+000 0.000000e+000
      outer loop
         vertex -1.962872e+000 1.250000e+001 7.105361e+000
         vertex -1.464074e+000 1.250000e+001 7.640000e+000
         vertex -7.823167e-001 1.250000e+001 -9.894639e+000
      endloop
   endfacet
   facet normal 0.000000e+000 1.000000e+000 0.000000e+000
      outer loop
         vertex 1.920065e+000 1.250000e+001 7.345115e+000
         vertex 1.947436e+000 1.250000e+001 7.267909e+000
         vertex 1.625161e+000 1.250000e+001 7.613340e+000
      endloop
   endfacet
   facet normal 0.000000e+000 1.000000e+000 0.000000e+000
      outer loop
         vertex -1.625161e+000 1.250000e+001 7.613340e+000
         vertex -1.962872e+000 1.250000e+001 7.105361e+000
         vertex -1.700286e+000 1.250000e+001 7.580686e+000
      endloop
   endfacet
   facet normal 0.000000e+000 1.000000e+000 0.000000e+000
      outer loop
         vertex -1.700286e+000 1.250000e+001 7.580686e+000
         vertex -1.962872e+000 1.250000e+001 7.105361e+000
         vertex -1.961834e+000 1.250000e+001 7.187269e+000
      endloop
   endfacet
   facet normal 0.000000e+000 1.000000e+000 0.000000e+000
      outer loop
         vertex -1.700286e+000 1.250000e+001 7.580686e+000
         vertex -1.961834e+000 1.250000e+001 7.187269e+000
         vertex -1.947436e+000 1.250000e+001 7.267909e+000
      endloop
   endfacet
   facet normal 0.000000e+000 1.000000e+000 0.000000e+000
      outer loop
         vertex 5.234448e-001 1.250000e+001 -1.029867e+001
         vertex -1.464074e+000 1.250000e+001 7.640000e+000
         vertex 5.929584e-001 1.250000e+001 -1.025274e+001
      endloop
   endfacet
   facet normal 0.000000e+000 1.000000e+000 0.000000e+000
      outer loop
         vertex 5.929584e-001 1.250000e+001 -1.025274e+001
         vertex -1.464074e+000 1.250000e+001 7.640000e+000
         vertex 6.538796e-001 1.250000e+001 -1.019590e+001
      endloop
   endfacet
   facet normal 0.000000e+000 1.000000e+000 0.000000e+000
      outer loop
         vertex 5.234448e-001 1.250000e+001 -1.029867e+001
         vertex 4.472690e-001 1.250000e+001 -1.033243e+001
         vertex -1.464074e+000 1.250000e+001 7.640000e+000
      endloop
   endfacet
   facet normal 0.000000e+000 1.000000e+000 0.000000e+000
      outer loop
         vertex -1.464074e+000 1.250000e+001 7.640000e+000
         vertex 4.472690e-001 1.250000e+001 -1.033243e+001
         vertex 3.665463e-001 1.250000e+001 -1.035306e+001
      endloop
   endfacet
   facet normal 0.000000e+000 1.000000e+000 0.000000e+000
      outer loop
         vertex -1.464074e+000 1.250000e+001 7.640000e+000
         vertex 3.665463e-001 1.250000e+001 -1.035306e+001
         vertex 2.835180e-001 1.250000e+001 -1.036000e+001
      endloop
   endfacet
   facet normal 0.000000e+000 1.000000e+000 0.000000e+000
      outer loop
         vertex 1.464074e+000 1.250000e+001 7.640000e+000
         vertex 1.545713e+000 1.250000e+001 7.633290e+000
         vertex 1.962872e+000 1.250000e+001 7.105361e+000
      endloop
   endfacet
   facet normal 0.000000e+000 1.000000e+000 0.000000e+000
      outer loop
         vertex 1.962872e+000 1.250000e+001 7.105361e+000
         vertex 1.545713e+000 1.250000e+001 7.633290e+000
         vertex 1.625161e+000 1.250000e+001 7.613340e+000
      endloop
   endfacet
   facet normal 0.000000e+000 1.000000e+000 0.000000e+000
      outer loop
         vertex 1.962872e+000 1.250000e+001 7.105361e+000
         vertex 1.625161e+000 1.250000e+001 7.613340e+000
         vertex 1.961834e+000 1.250000e+001 7.187269e+000
      endloop
   endfacet
   facet normal 0.000000e+000 1.000000e+000 0.000000e+000
      outer loop
         vertex 1.961834e+000 1.250000e+001 7.187269e+000
         vertex 1.625161e+000 1.250000e+001 7.613340e+000
         vertex 1.947436e+000 1.250000e+001 7.267909e+000
      endloop
   endfacet
   facet normal 0.000000e+000 1.000000e+000 0.000000e+000
      outer loop
         vertex -1.947436e+000 1.250000e+001 7.267909e+000
         vertex -1.920065e+000 1.250000e+001 7.345115e+000
         vertex -1.700286e+000 1.250000e+001 7.580686e+000
      endloop
   endfacet
   facet normal 0.000000e+000 1.000000e+000 0.000000e+000
      outer loop
         vertex -1.700286e+000 1.250000e+001 7.580686e+000
         vertex -1.920065e+000 1.250000e+001 7.345115e+000
         vertex -1.880455e+000 1.250000e+001 7.416816e+000
      endloop
   endfacet
   facet normal 0.000000e+000 1.000000e+000 0.000000e+000
      outer loop
         vertex -1.700286e+000 1.250000e+001 7.580686e+000
         vertex -1.880455e+000 1.250000e+001 7.416816e+000
         vertex -1.769070e+000 1.250000e+001 7.536203e+000
      endloop
   endfacet
   facet normal 0.000000e+000 1.000000e+000 0.000000e+000
      outer loop
         vertex -1.769070e+000 1.250000e+001 7.536203e+000
         vertex -1.880455e+000 1.250000e+001 7.416816e+000
         vertex -1.829669e+000 1.250000e+001 7.481087e+000
      endloop
   endfacet
   facet normal 0.000000e+000 1.000000e+000 0.000000e+000
      outer loop
         vertex 1.962872e+000 1.250000e+001 7.105361e+000
         vertex 7.823167e-001 1.250000e+001 -9.894639e+000
         vertex 1.464074e+000 1.250000e+001 7.640000e+000
      endloop
   endfacet
   facet normal 0.000000e+000 1.000000e+000 0.000000e+000
      outer loop
         vertex 1.464074e+000 1.250000e+001 7.640000e+000
         vertex 7.823167e-001 1.250000e+001 -9.894639e+000
         vertex 7.434640e-001 1.250000e+001 -1.005609e+001
      endloop
   endfacet
   facet normal 0.000000e+000 1.000000e+000 0.000000e+000
      outer loop
         vertex 1.464074e+000 1.250000e+001 7.640000e+000
         vertex 7.434640e-001 1.250000e+001 -1.005609e+001
         vertex -1.464074e+000 1.250000e+001 7.640000e+000
      endloop
   endfacet
   facet normal 0.000000e+000 1.000000e+000 0.000000e+000
      outer loop
         vertex -1.464074e+000 1.250000e+001 7.640000e+000
         vertex 7.434640e-001 1.250000e+001 -1.005609e+001
         vertex 7.045168e-001 1.250000e+001 -1.012974e+001
      endloop
   endfacet
   facet normal 0.000000e+000 1.000000e+000 0.000000e+000
      outer loop
         vertex -1.464074e+000 1.250000e+001 7.640000e+000
         vertex 7.045168e-001 1.250000e+001 -1.012974e+001
         vertex 6.538796e-001 1.250000e+001 -1.019590e+001
      endloop
   endfacet
   facet normal 0.000000e+000 1.000000e+000 0.000000e+000
      outer loop
         vertex 2.835180e-001 1.250000e+001 -1.036000e+001
         vertex -2.835180e-001 1.250000e+001 -1.036000e+001
         vertex -1.464074e+000 1.250000e+001 7.640000e+000
      endloop
   endfacet
   facet normal 0.000000e+000 1.000000e+000 0.000000e+000
      outer loop
         vertex -1.464074e+000 1.250000e+001 7.640000e+000
         vertex -2.835180e-001 1.250000e+001 -1.036000e+001
         vertex -3.665463e-001 1.250000e+001 -1.035306e+001
      endloop
   endfacet
   facet normal 0.000000e+000 1.000000e+000 0.000000e+000
      outer loop
         vertex -1.464074e+000 1.250000e+001 7.640000e+000
         vertex -3.665463e-001 1.250000e+001 -1.035306e+001
         vertex -4.472690e-001 1.250000e+001 -1.033243e+001
      endloop
   endfacet
   facet normal 0.000000e+000 1.000000e+000 0.000000e+000
      outer loop
         vertex -7.696396e-001 1.250000e+001 -9.976987e+000
         vertex -7.823167e-001 1.250000e+001 -9.894639e+000
         vertex -7.434640e-001 1.250000e+001 -1.005609e+001
      endloop
   endfacet
   facet normal 0.000000e+000 1.000000e+000 0.000000e+000
      outer loop
         vertex -7.434640e-001 1.250000e+001 -1.005609e+001
         vertex -7.823167e-001 1.250000e+001 -9.894639e+000
         vertex -1.464074e+000 1.250000e+001 7.640000e+000
      endloop
   endfacet
   facet normal 0.000000e+000 1.000000e+000 0.000000e+000
      outer loop
         vertex -7.434640e-001 1.250000e+001 -1.005609e+001
         vertex -1.464074e+000 1.250000e+001 7.640000e+000
         vertex -7.045168e-001 1.250000e+001 -1.012974e+001
      endloop
   endfacet
   facet normal 0.000000e+000 1.000000e+000 0.000000e+000
      outer loop
         vertex -7.045168e-001 1.250000e+001 -1.012974e+001
         vertex -1.464074e+000 1.250000e+001 7.640000e+000
         vertex -6.538796e-001 1.250000e+001 -1.019590e+001
      endloop
   endfacet
   facet normal 0.000000e+000 1.000000e+000 0.000000e+000
      outer loop
         vertex 1.625161e+000 1.250000e+001 7.613340e+000
         vertex 1.700286e+000 1.250000e+001 7.580686e+000
         vertex 1.769070e+000 1.250000e+001 7.536203e+000
      endloop
   endfacet
   facet normal 0.000000e+000 1.000000e+000 0.000000e+000
      outer loop
         vertex -4.472690e-001 1.250000e+001 -1.033243e+001
         vertex -5.234448e-001 1.250000e+001 -1.029867e+001
         vertex -1.464074e+000 1.250000e+001 7.640000e+000
      endloop
   endfacet
   facet normal 0.000000e+000 1.000000e+000 0.000000e+000
      outer loop
         vertex -1.464074e+000 1.250000e+001 7.640000e+000
         vertex -5.234448e-001 1.250000e+001 -1.029867e+001
         vertex -5.929584e-001 1.250000e+001 -1.025274e+001
      endloop
   endfacet
   facet normal 0.000000e+000 1.000000e+000 0.000000e+000
      outer loop
         vertex -1.464074e+000 1.250000e+001 7.640000e+000
         vertex -5.929584e-001 1.250000e+001 -1.025274e+001
         vertex -6.538796e-001 1.250000e+001 -1.019590e+001
      endloop
   endfacet
   facet normal 0.000000e+000 1.000000e+000 0.000000e+000
      outer loop
         vertex 1.769070e+000 1.250000e+001 7.536203e+000
         vertex 1.829669e+000 1.250000e+001 7.481087e+000
         vertex 1.625161e+000 1.250000e+001 7.613340e+000
      endloop
   endfacet
   facet normal 0.000000e+000 1.000000e+000 0.000000e+000
      outer loop
         vertex 1.625161e+000 1.250000e+001 7.613340e+000
         vertex 1.829669e+000 1.250000e+001 7.481087e+000
         vertex 1.880455e+000 1.250000e+001 7.416816e+000
      endloop
   endfacet
   facet normal 0.000000e+000 1.000000e+000 0.000000e+000
      outer loop
         vertex 1.625161e+000 1.250000e+001 7.613340e+000
         vertex 1.880455e+000 1.250000e+001 7.416816e+000
         vertex 1.920065e+000 1.250000e+001 7.345115e+000
      endloop
   endfacet
   facet normal 5.552372e-002 0.000000e+000 -9.984574e-001
      outer loop
         vertex 2.835180e-001 -1.250000e+001 -1.036000e+001
         vertex 2.835180e-001 1.250000e+001 -1.036000e+001
         vertex 3.665463e-001 1.250000e+001 -1.035306e+001
      endloop
   endfacet
   facet normal 1.110475e-001 0.000000e+000 -9.938151e-001
      outer loop
         vertex 2.835180e-001 -1.250000e+001 -1.036000e+001
         vertex 3.665463e-001 1.250000e+001 -1.035306e+001
         vertex 3.665463e-001 -1.250000e+001 -1.035306e+001
      endloop
   endfacet
   facet normal 2.205531e-001 0.000000e+000 -9.753749e-001
      outer loop
         vertex 3.665463e-001 -1.250000e+001 -1.035306e+001
         vertex 3.665463e-001 1.250000e+001 -1.035306e+001
         vertex 4.472690e-001 1.250000e+001 -1.033243e+001
      endloop
   endfacet
   facet normal 2.745351e-001 0.000000e+000 -9.615771e-001
      outer loop
         vertex 3.665463e-001 -1.250000e+001 -1.035306e+001
         vertex 4.472690e-001 1.250000e+001 -1.033243e+001
         vertex 4.472690e-001 -1.250000e+001 -1.033243e+001
      endloop
   endfacet
   facet normal 3.794584e-001 0.000000e+000 -9.252089e-001
      outer loop
         vertex 4.472690e-001 -1.250000e+001 -1.033243e+001
         vertex 4.472690e-001 1.250000e+001 -1.033243e+001
         vertex 5.234448e-001 1.250000e+001 -1.029867e+001
      endloop
   endfacet
   facet normal 4.303996e-001 0.000000e+000 -9.026384e-001
      outer loop
         vertex 4.472690e-001 -1.250000e+001 -1.033243e+001
         vertex 5.234448e-001 1.250000e+001 -1.029867e+001
         vertex 5.234448e-001 -1.250000e+001 -1.029867e+001
      endloop
   endfacet
   facet normal 5.278270e-001 0.000000e+000 -8.493519e-001
      outer loop
         vertex 5.234448e-001 -1.250000e+001 -1.029867e+001
         vertex 5.234448e-001 1.250000e+001 -1.029867e+001
         vertex 5.929584e-001 1.250000e+001 -1.025274e+001
      endloop
   endfacet
   facet normal 5.743130e-001 0.000000e+000 -8.186358e-001
      outer loop
         vertex 5.234448e-001 -1.250000e+001 -1.029867e+001
         vertex 5.929584e-001 1.250000e+001 -1.025274e+001
         vertex 5.929584e-001 -1.250000e+001 -1.025274e+001
      endloop
   endfacet
   facet normal 6.615391e-001 0.000000e+000 -7.499107e-001
      outer loop
         vertex 5.929584e-001 -1.250000e+001 -1.025274e+001
         vertex 5.929584e-001 1.250000e+001 -1.025274e+001
         vertex 6.538796e-001 1.250000e+001 -1.019590e+001
      endloop
   endfacet
   facet normal 7.022791e-001 0.000000e+000 -7.119017e-001
      outer loop
         vertex 5.929584e-001 -1.250000e+001 -1.025274e+001
         vertex 6.538796e-001 1.250000e+001 -1.019590e+001
         vertex 6.538796e-001 -1.250000e+001 -1.019590e+001
      endloop
   endfacet
   facet normal 7.768819e-001 0.000000e+000 -6.296463e-001
      outer loop
         vertex 6.538796e-001 -1.250000e+001 -1.019590e+001
         vertex 6.538796e-001 1.250000e+001 -1.019590e+001
         vertex 7.045168e-001 1.250000e+001 -1.012974e+001
      endloop
   endfacet
   facet normal 8.107447e-001 0.000000e+000 -5.853999e-001
      outer loop
         vertex 6.538796e-001 -1.250000e+001 -1.019590e+001
         vertex 7.045168e-001 1.250000e+001 -1.012974e+001
         vertex 7.045168e-001 -1.250000e+001 -1.012974e+001
      endloop
   endfacet
   facet normal 8.706527e-001 0.000000e+000 -4.918982e-001
      outer loop
         vertex 7.045168e-001 -1.250000e+001 -1.012974e+001
         vertex 7.045168e-001 1.250000e+001 -1.012974e+001
         vertex 7.434640e-001 1.250000e+001 -1.005609e+001
      endloop
   endfacet
   facet normal 8.966980e-001 0.000000e+000 -4.426429e-001
      outer loop
         vertex 7.045168e-001 -1.250000e+001 -1.012974e+001
         vertex 7.434640e-001 1.250000e+001 -1.005609e+001
         vertex 7.434640e-001 -1.250000e+001 -1.005609e+001
      endloop
   endfacet
   facet normal 9.402477e-001 0.000000e+000 -3.404913e-001
      outer loop
         vertex 7.434640e-001 -1.250000e+001 -1.005609e+001
         vertex 7.434640e-001 1.250000e+001 -1.005609e+001
         vertex 7.696396e-001 1.250000e+001 -9.976987e+000
      endloop
   endfacet
   facet normal 9.577522e-001 0.000000e+000 -2.875949e-001
      outer loop
         vertex 7.434640e-001 -1.250000e+001 -1.005609e+001
         vertex 7.696396e-001 1.250000e+001 -9.976987e+000
         vertex 7.696396e-001 -1.250000e+001 -9.976987e+000
      endloop
   endfacet
   facet normal 9.837343e-001 0.000000e+000 -1.796298e-001
      outer loop
         vertex 7.696396e-001 -1.250000e+001 -9.976987e+000
         vertex 7.696396e-001 1.250000e+001 -9.976987e+000
         vertex 7.823167e-001 1.250000e+001 -9.894639e+000
      endloop
   endfacet
   facet normal 9.922119e-001 0.000000e+000 -1.245610e-001
      outer loop
         vertex 7.696396e-001 -1.250000e+001 -9.976987e+000
         vertex 7.823167e-001 1.250000e+001 -9.894639e+000
         vertex 7.823167e-001 -1.250000e+001 -9.894639e+000
      endloop
   endfacet
   facet normal -9.922119e-001 0.000000e+000 -1.245610e-001
      outer loop
         vertex -7.823167e-001 -1.250000e+001 -9.894639e+000
         vertex -7.823167e-001 1.250000e+001 -9.894639e+000
         vertex -7.696396e-001 1.250000e+001 -9.976987e+000
      endloop
   endfacet
   facet normal -9.837343e-001 0.000000e+000 -1.796298e-001
      outer loop
         vertex -7.823167e-001 -1.250000e+001 -9.894639e+000
         vertex -7.696396e-001 1.250000e+001 -9.976987e+000
         vertex -7.696396e-001 -1.250000e+001 -9.976987e+000
      endloop
   endfacet
   facet normal -9.577522e-001 0.000000e+000 -2.875949e-001
      outer loop
         vertex -7.696396e-001 -1.250000e+001 -9.976987e+000
         vertex -7.696396e-001 1.250000e+001 -9.976987e+000
         vertex -7.434640e-001 1.250000e+001 -1.005609e+001
      endloop
   endfacet
   facet normal -9.402477e-001 0.000000e+000 -3.404913e-001
      outer loop
         vertex -7.696396e-001 -1.250000e+001 -9.976987e+000
         vertex -7.434640e-001 1.250000e+001 -1.005609e+001
         vertex -7.434640e-001 -1.250000e+001 -1.005609e+001
      endloop
   endfacet
   facet normal -8.966980e-001 0.000000e+000 -4.426429e-001
      outer loop
         vertex -7.434640e-001 -1.250000e+001 -1.005609e+001
         vertex -7.434640e-001 1.250000e+001 -1.005609e+001
         vertex -7.045168e-001 1.250000e+001 -1.012974e+001
      endloop
   endfacet
   facet normal -8.706527e-001 0.000000e+000 -4.918981e-001
      outer loop
         vertex -7.434640e-001 -1.250000e+001 -1.005609e+001
         vertex -7.045168e-001 1.250000e+001 -1.012974e+001
         vertex -7.045168e-001 -1.250000e+001 -1.012974e+001
      endloop
   endfacet
   facet normal -8.107447e-001 0.000000e+000 -5.853999e-001
      outer loop
         vertex -7.045168e-001 -1.250000e+001 -1.012974e+001
         vertex -7.045168e-001 1.250000e+001 -1.012974e+001
         vertex -6.538796e-001 1.250000e+001 -1.019590e+001
      endloop
   endfacet
   facet normal -7.768819e-001 0.000000e+000 -6.296463e-001
      outer loop
         vertex -7.045168e-001 -1.250000e+001 -1.012974e+001
         vertex -6.538796e-001 1.250000e+001 -1.019590e+001
         vertex -6.538796e-001 -1.250000e+001 -1.019590e+001
      endloop
   endfacet
   facet normal -7.022791e-001 0.000000e+000 -7.119017e-001
      outer loop
         vertex -6.538796e-001 -1.250000e+001 -1.019590e+001
         vertex -6.538796e-001 1.250000e+001 -1.019590e+001
         vertex -5.929584e-001 1.250000e+001 -1.025274e+001
      endloop
   endfacet
   facet normal -6.615391e-001 0.000000e+000 -7.499107e-001
      outer loop
         vertex -6.538796e-001 -1.250000e+001 -1.019590e+001
         vertex -5.929584e-001 1.250000e+001 -1.025274e+001
         vertex -5.929584e-001 -1.250000e+001 -1.025274e+001
      endloop
   endfacet
   facet normal -5.743130e-001 0.000000e+000 -8.186358e-001
      outer loop
         vertex -5.929584e-001 -1.250000e+001 -1.025274e+001
         vertex -5.929584e-001 1.250000e+001 -1.025274e+001
         vertex -5.234448e-001 1.250000e+001 -1.029867e+001
      endloop
   endfacet
   facet normal -5.278270e-001 0.000000e+000 -8.493519e-001
      outer loop
         vertex -5.929584e-001 -1.250000e+001 -1.025274e+001
         vertex -5.234448e-001 1.250000e+001 -1.029867e+001
         vertex -5.234448e-001 -1.250000e+001 -1.029867e+001
      endloop
   endfacet
   facet normal -4.303996e-001 0.000000e+000 -9.026384e-001
      outer loop
         vertex -5.234448e-001 -1.250000e+001 -1.029867e+001
         vertex -5.234448e-001 1.250000e+001 -1.029867e+001
         vertex -4.472690e-001 1.250000e+001 -1.033243e+001
      endloop
   endfacet
   facet normal -3.794583e-001 0.000000e+000 -9.252089e-001
      outer loop
         vertex -5.234448e-001 -1.250000e+001 -1.029867e+001
         vertex -4.472690e-001 1.250000e+001 -1.033243e+001
         vertex -4.472690e-001 -1.250000e+001 -1.033243e+001
      endloop
   endfacet
   facet normal -2.745351e-001 0.000000e+000 -9.615771e-001
      outer loop
         vertex -4.472690e-001 -1.250000e+001 -1.033243e+001
         vertex -4.472690e-001 1.250000e+001 -1.033243e+001
         vertex -3.665463e-001 1.250000e+001 -1.035306e+001
      endloop
   endfacet
   facet normal -2.205531e-001 0.000000e+000 -9.753749e-001
      outer loop
         vertex -4.472690e-001 -1.250000e+001 -1.033243e+001
         vertex -3.665463e-001 1.250000e+001 -1.035306e+001
         vertex -3.665463e-001 -1.250000e+001 -1.035306e+001
      endloop
   endfacet
   facet normal -1.110475e-001 0.000000e+000 -9.938151e-001
      outer loop
         vertex -3.665463e-001 -1.250000e+001 -1.035306e+001
         vertex -3.665463e-001 1.250000e+001 -1.035306e+001
         vertex -2.835180e-001 1.250000e+001 -1.036000e+001
      endloop
   endfacet
   facet normal -5.552372e-002 0.000000e+000 -9.984574e-001
      outer loop
         vertex -3.665463e-001 -1.250000e+001 -1.035306e+001
         vertex -2.835180e-001 1.250000e+001 -1.036000e+001
         vertex -2.835180e-001 -1.250000e+001 -1.036000e+001
      endloop
   endfacet
   facet normal 9.998917e-001 0.000000e+000 -1.471621e-002
      outer loop
         vertex 1.962872e+000 -1.250000e+001 7.105361e+000
         vertex 1.962872e+000 1.250000e+001 7.105361e+000
         vertex 1.961834e+000 1.250000e+001 7.187269e+000
      endloop
   endfacet
   facet normal 9.991975e-001 0.000000e+000 4.005270e-002
      outer loop
         vertex 1.962872e+000 -1.250000e+001 7.105361e+000
         vertex 1.961834e+000 1.250000e+001 7.187269e+000
         vertex 1.961834e+000 -1.250000e+001 7.187269e+000
      endloop
   endfacet
   facet normal 9.888760e-001 0.000000e+000 1.487422e-001
      outer loop
         vertex 1.961834e+000 -1.250000e+001 7.187269e+000
         vertex 1.961834e+000 1.250000e+001 7.187269e+000
         vertex 1.947436e+000 1.250000e+001 7.267909e+000
      endloop
   endfacet
   facet normal 9.792486e-001 0.000000e+000 2.026628e-001
      outer loop
         vertex 1.961834e+000 -1.250000e+001 7.187269e+000
         vertex 1.947436e+000 1.250000e+001 7.267909e+000
         vertex 1.947436e+000 -1.250000e+001 7.267909e+000
      endloop
   endfacet
   facet normal 9.513189e-001 0.000000e+000 3.082084e-001
      outer loop
         vertex 1.947436e+000 -1.250000e+001 7.267909e+000
         vertex 1.947436e+000 1.250000e+001 7.267909e+000
         vertex 1.920065e+000 1.250000e+001 7.345115e+000
      endloop
   endfacet
   facet normal 9.330166e-001 0.000000e+000 3.598334e-001
      outer loop
         vertex 1.947436e+000 -1.250000e+001 7.267909e+000
         vertex 1.920065e+000 1.250000e+001 7.345115e+000
         vertex 1.920065e+000 -1.250000e+001 7.345115e+000
      endloop
   endfacet
   facet normal 8.882283e-001 0.000000e+000 4.594022e-001
      outer loop
         vertex 1.920065e+000 -1.250000e+001 7.345115e+000
         vertex 1.920065e+000 1.250000e+001 7.345115e+000
         vertex 1.880455e+000 1.250000e+001 7.416816e+000
      endloop
   endfacet
   facet normal 8.617424e-001 0.000000e+000 5.073461e-001
      outer loop
         vertex 1.920065e+000 -1.250000e+001 7.345115e+000
         vertex 1.880455e+000 1.250000e+001 7.416816e+000
         vertex 1.880455e+000 -1.250000e+001 7.416816e+000
      endloop
   endfacet
   facet normal 8.012978e-001 0.000000e+000 5.982657e-001
      outer loop
         vertex 1.880455e+000 -1.250000e+001 7.416816e+000
         vertex 1.880455e+000 1.250000e+001 7.416816e+000
         vertex 1.829669e+000 1.250000e+001 7.481087e+000
      endloop
   endfacet
   facet normal 7.673391e-001 0.000000e+000 6.412416e-001
      outer loop
         vertex 1.880455e+000 -1.250000e+001 7.416816e+000
         vertex 1.829669e+000 1.250000e+001 7.481087e+000
         vertex 1.829669e+000 -1.250000e+001 7.481087e+000
      endloop
   endfacet
   facet normal 6.928604e-001 0.000000e+000 7.210718e-001
      outer loop
         vertex 1.829669e+000 -1.250000e+001 7.481087e+000
         vertex 1.829669e+000 1.250000e+001 7.481087e+000
         vertex 1.769070e+000 1.250000e+001 7.536203e+000
      endloop
   endfacet
   facet normal 6.523403e-001 0.000000e+000 7.579262e-001
      outer loop
         vertex 1.829669e+000 -1.250000e+001 7.481087e+000
         vertex 1.769070e+000 1.250000e+001 7.536203e+000
         vertex 1.769070e+000 -1.250000e+001 7.536203e+000
      endloop
   endfacet
   facet normal 5.658266e-001 0.000000e+000 8.245242e-001
      outer loop
         vertex 1.769070e+000 -1.250000e+001 7.536203e+000
         vertex 1.769070e+000 1.250000e+001 7.536203e+000
         vertex 1.700286e+000 1.250000e+001 7.580686e+000
      endloop
   endfacet
   facet normal 5.198328e-001 0.000000e+000 8.542680e-001
      outer loop
         vertex 1.769070e+000 -1.250000e+001 7.536203e+000
         vertex 1.700286e+000 1.250000e+001 7.580686e+000
         vertex 1.700286e+000 -1.250000e+001 7.580686e+000
      endloop
   endfacet
   facet normal 4.236060e-001 0.000000e+000 9.058465e-001
      outer loop
         vertex 1.700286e+000 -1.250000e+001 7.580686e+000
         vertex 1.700286e+000 1.250000e+001 7.580686e+000
         vertex 1.625161e+000 1.250000e+001 7.613340e+000
      endloop
   endfacet
   facet normal 3.733730e-001 0.000000e+000 9.276813e-001
      outer loop
         vertex 1.700286e+000 -1.250000e+001 7.580686e+000
         vertex 1.625161e+000 1.250000e+001 7.613340e+000
         vertex 1.625161e+000 -1.250000e+001 7.613340e+000
      endloop
   endfacet
   facet normal 2.700158e-001 0.000000e+000 9.628559e-001
      outer loop
         vertex 1.625161e+000 -1.250000e+001 7.613340e+000
         vertex 1.625161e+000 1.250000e+001 7.613340e+000
         vertex 1.545713e+000 1.250000e+001 7.633290e+000
      endloop
   endfacet
   facet normal 2.168918e-001 0.000000e+000 9.761956e-001
      outer loop
         vertex 1.625161e+000 -1.250000e+001 7.613340e+000
         vertex 1.545713e+000 1.250000e+001 7.633290e+000
         vertex 1.545713e+000 -1.250000e+001 7.633290e+000
      endloop
   endfacet
   facet normal 1.091785e-001 0.000000e+000 9.940221e-001
      outer loop
         vertex 1.545713e+000 -1.250000e+001 7.633290e+000
         vertex 1.545713e+000 1.250000e+001 7.633290e+000
         vertex 1.464074e+000 1.250000e+001 7.640000e+000
      endloop
   endfacet
   facet normal 5.458925e-002 0.000000e+000 9.985089e-001
      outer loop
         vertex 1.545713e+000 -1.250000e+001 7.633290e+000
         vertex 1.464074e+000 1.250000e+001 7.640000e+000
         vertex 1.464074e+000 -1.250000e+001 7.640000e+000
      endloop
   endfacet
   facet normal -5.458925e-002 0.000000e+000 9.985089e-001
      outer loop
         vertex -1.464074e+000 -1.250000e+001 7.640000e+000
         vertex -1.464074e+000 1.250000e+001 7.640000e+000
         vertex -1.545713e+000 1.250000e+001 7.633290e+000
      endloop
   endfacet
   facet normal -1.091785e-001 0.000000e+000 9.940221e-001
      outer loop
         vertex -1.464074e+000 -1.250000e+001 7.640000e+000
         vertex -1.545713e+000 1.250000e+001 7.633290e+000
         vertex -1.545713e+000 -1.250000e+001 7.633290e+000
      endloop
   endfacet
   facet normal -2.168918e-001 0.000000e+000 9.761956e-001
      outer loop
         vertex -1.545713e+000 -1.250000e+001 7.633290e+000
         vertex -1.545713e+000 1.250000e+001 7.633290e+000
         vertex -1.625161e+000 1.250000e+001 7.613340e+000
      endloop
   endfacet
   facet normal -2.700158e-001 0.000000e+000 9.628559e-001
      outer loop
         vertex -1.545713e+000 -1.250000e+001 7.633290e+000
         vertex -1.625161e+000 1.250000e+001 7.613340e+000
         vertex -1.625161e+000 -1.250000e+001 7.613340e+000
      endloop
   endfacet
   facet normal -3.733730e-001 0.000000e+000 9.276813e-001
      outer loop
         vertex -1.625161e+000 -1.250000e+001 7.613340e+000
         vertex -1.625161e+000 1.250000e+001 7.613340e+000
         vertex -1.700286e+000 1.250000e+001 7.580686e+000
      endloop
   endfacet
   facet normal -4.236061e-001 0.000000e+000 9.058465e-001
      outer loop
         vertex -1.625161e+000 -1.250000e+001 7.613340e+000
         vertex -1.700286e+000 1.250000e+001 7.580686e+000
         vertex -1.700286e+000 -1.250000e+001 7.580686e+000
      endloop
   endfacet
   facet normal -5.198328e-001 0.000000e+000 8.542680e-001
      outer loop
         vertex -1.700286e+000 -1.250000e+001 7.580686e+000
         vertex -1.700286e+000 1.250000e+001 7.580686e+000
         vertex -1.769070e+000 1.250000e+001 7.536203e+000
      endloop
   endfacet
   facet normal -5.658266e-001 0.000000e+000 8.245242e-001
      outer loop
         vertex -1.700286e+000 -1.250000e+001 7.580686e+000
         vertex -1.769070e+000 1.250000e+001 7.536203e+000
         vertex -1.769070e+000 -1.250000e+001 7.536203e+000
      endloop
   endfacet
   facet normal -6.523403e-001 0.000000e+000 7.579262e-001
      outer loop
         vertex -1.769070e+000 -1.250000e+001 7.536203e+000
         vertex -1.769070e+000 1.250000e+001 7.536203e+000
         vertex -1.829669e+000 1.250000e+001 7.481087e+000
      endloop
   endfacet
   facet normal -6.928603e-001 0.000000e+000 7.210718e-001
      outer loop
         vertex -1.769070e+000 -1.250000e+001 7.536203e+000
         vertex -1.829669e+000 1.250000e+001 7.481087e+000
         vertex -1.829669e+000 -1.250000e+001 7.481087e+000
      endloop
   endfacet
   facet normal -7.673391e-001 0.000000e+000 6.412416e-001
      outer loop
         vertex -1.829669e+000 -1.250000e+001 7.481087e+000
         vertex -1.829669e+000 1.250000e+001 7.481087e+000
         vertex -1.880455e+000 1.250000e+001 7.416816e+000
      endloop
   endfacet
   facet normal -8.012977e-001 0.000000e+000 5.982657e-001
      outer loop
         vertex -1.829669e+000 -1.250000e+001 7.481087e+000
         vertex -1.880455e+000 1.250000e+001 7.416816e+000
         vertex -1.880455e+000 -1.250000e+001 7.416816e+000
      endloop
   endfacet
   facet normal -8.617424e-001 0.000000e+000 5.073460e-001
      outer loop
         vertex -1.880455e+000 -1.250000e+001 7.416816e+000
         vertex -1.880455e+000 1.250000e+001 7.416816e+000
         vertex -1.920065e+000 1.250000e+001 7.345115e+000
      endloop
   endfacet
   facet normal -8.882283e-001 0.000000e+000 4.594022e-001
      outer loop
         vertex -1.880455e+000 -1.250000e+001 7.416816e+000
         vertex -1.920065e+000 1.250000e+001 7.345115e+000
         vertex -1.920065e+000 -1.250000e+001 7.345115e+000
      endloop
   endfacet
   facet normal -9.330166e-001 0.000000e+000 3.598334e-001
      outer loop
         vertex -1.920065e+000 -1.250000e+001 7.345115e+000
         vertex -1.920065e+000 1.250000e+001 7.345115e+000
         vertex -1.947436e+000 1.250000e+001 7.267909e+000
      endloop
   endfacet
   facet normal -9.513189e-001 0.000000e+000 3.082084e-001
      outer loop
         vertex -1.920065e+000 -1.250000e+001 7.345115e+000
         vertex -1.947436e+000 1.250000e+001 7.267909e+000
         vertex -1.947436e+000 -1.250000e+001 7.267909e+000
      endloop
   endfacet
   facet normal -9.792486e-001 0.000000e+000 2.026628e-001
      outer loop
         vertex -1.947436e+000 -1.250000e+001 7.267909e+000
         vertex -1.947436e+000 1.250000e+001 7.267909e+000
         vertex -1.961834e+000 1.250000e+001 7.187269e+000
      endloop
   endfacet
   facet normal -9.888760e-001 0.000000e+000 1.487422e-001
      outer loop
         vertex -1.947436e+000 -1.250000e+001 7.267909e+000
         vertex -1.961834e+000 1.250000e+001 7.187269e+000
         vertex -1.961834e+000 -1.250000e+001 7.187269e+000
      endloop
   endfacet
   facet normal -9.991975e-001 0.000000e+000 4.005270e-002
      outer loop
         vertex -1.961834e+000 -1.250000e+001 7.187269e+000
         vertex -1.961834e+000 1.250000e+001 7.187269e+000
         vertex -1.962872e+000 1.250000e+001 7.105361e+000
      endloop
   endfacet
   facet normal -9.998917e-001 0.000000e+000 -1.471621e-002
      outer loop
         vertex -1.961834e+000 -1.250000e+001 7.187269e+000
         vertex -1.962872e+000 1.250000e+001 7.105361e+000
         vertex -1.962872e+000 -1.250000e+001 7.105361e+000
      endloop
   endfacet
endsolid